<svg width="600" height="545" viewBox="0 0 158.75 144.198" xmlns:xlink="http://www.w3.org/1999/xlink" xmlns="http://www.w3.org/2000/svg"><path style="display:inline;fill:#f3c242;fill-opacity:1;stroke:#956c29;stroke-width:.79375;stroke-linecap:butt;stroke-linejoin:miter;stroke-miterlimit:4;stroke-dasharray:none;stroke-opacity:1" d="m98.428 143.415 6.957-8.971c28.695.727 37.91-1.524 52.124-7.393-.716-5.078-1.494-10.886-1.135-17.972 6.308-17.785-14.477-17.744-15.6-9.412-.762 5.655-1.297 10.463-1.187 16.501-18.262 5.701-39.999.917-42.048 2.116-3.455 2.021-5.802 4.608-8.23 7.139-6.655-1.658-13.61-1.85-19.868 0-2.428-2.531-4.775-5.118-8.23-7.139-2.05-1.199-23.786 3.585-42.048-2.116.11-6.038-.425-10.846-1.187-16.501-1.123-8.332-21.908-8.373-15.6 9.412.359 7.086-.42 12.894-1.135 17.972 14.215 5.87 23.429 8.12 52.123 7.393l6.958 8.97c12.629-6.353 26.783-5.705 38.106 0z"/><path style="display:inline;fill:none;stroke:#956c29;stroke-width:.79375;stroke-linecap:butt;stroke-linejoin:miter;stroke-miterlimit:4;stroke-dasharray:none;stroke-opacity:1" d="M17.803 98.894c.838 5.815-5.742 8.364-11.693 6.552l.764 6.387m62.567 13.59c-4.697 1.617-12.766 5.368-16.077 9.02 3.256-3.688 7.106-10.115 7.743-16.185m-41.944-2.09c-9.357-2.517-15.285-5.649-16.787-7.089m138.57-10.185c-.837 5.815 5.743 8.364 11.694 6.552l-.764 6.387m-62.567 13.59c4.696 1.617 12.766 5.368 16.076 9.02-3.256-3.688-7.105-10.115-7.742-16.185m41.944-2.09c9.357-2.517 15.285-5.649 16.787-7.089"/><path style="font-weight:700;font-size:9.17222px;line-height:1;font-family:'DejaVu Sans';-inkscape-font-specification:'DejaVu Sans Bold';letter-spacing:.0608542px;word-spacing:0;display:inline;fill:#956c29;fill-opacity:1;stroke-width:.264583" d="m146.335 119.23 1.768-.656 2.257 1.704.598-2.764 1.772-.657-1.043 4.514.98 2.641-1.616.6-.98-2.64zm-1.816 3.613q.52-.15.688-.409.172-.26.044-.703-.127-.438-.41-.562-.278-.124-.799.026l-.697.202.477 1.647zm-.366 1.346.702 2.43-1.656.48-1.857-6.424 2.53-.731q1.268-.367 1.981-.112.717.254.983 1.175.184.637-.007 1.135-.187.497-.75.87.362-.02.708.177.35.193.785.668l1.427 1.565-1.764.51-1.245-1.37q-.375-.413-.672-.519-.292-.107-.696.01zm-9.212-2.21 6.047-1.188.251 1.279-2.175.427 1.039 5.282-1.692.333-1.039-5.282-2.18.429zm-6.355.709 1.914-.216 2.93 4.286-.513-4.558 1.624-.183.748 6.645-1.914.215-2.93-4.285.514 4.557-1.625.183zm-2.413 5.606-2.693.137-.363 1.238-1.73.088 2.133-6.804 2.053-.104 2.813 6.552-1.73.088zm-2.326-1.124 1.83-.093-1.049-2.61zm-7.045-4.046 4.653-.08.022 1.304-2.929.05.021 1.244 2.754-.046.022 1.303-2.754.046.048 2.835-1.724.03zm-7.58-.026 1.925.013 2.4 4.603.032-4.586 1.635.01-.046 6.687-1.926-.013-2.4-4.603-.032 4.586-1.634-.01zm-3.366-.08 1.724.037-.145 6.685-1.724-.037zm-20.234 5.113h1.99v2.817l2.868-2.817h2.31l-3.716 3.654 4.098 4.062h-2.49l-3.07-3.039v3.039h-1.99zm-6.684 6.31h-3.11l-.492 1.406h-2l2.858-7.716h2.372l2.858 7.716h-2zm-2.614-1.431h2.113l-1.054-3.07zm-9.18-4.879h1.99v6.966q0 1.442-.786 2.155-.78.713-2.367.713h-.403v-1.503h.31q.62 0 .935-.347.32-.346.32-1.018zm-23.39-3.932 6.161-.059.013 1.304-2.217.02.051 5.384-1.724.016-.051-5.383-2.221.021zm-9.008-.167 1.724.046-.068 2.547 2.543.068.068-2.547 1.724.046-.179 6.684-1.723-.046.075-2.834-2.543-.068-.075 2.834-1.724-.046zm-4.026 5.998q-.672.25-1.378.34-.706.09-1.442.019-1.663-.16-2.545-1.18-.883-1.026-.73-2.617.155-1.61 1.233-2.437 1.078-.828 2.8-.663.663.064 1.258.247.599.183 1.114.48l-.132 1.378q-.527-.37-1.065-.58-.533-.208-1.086-.26-1.025-.1-1.638.422-.607.518-.71 1.583-.101 1.057.379 1.683.48.627 1.465.721.267.026.498.017.235-.014.424-.068l.125-1.292-1.048-.101.11-1.15 2.675.257zm-10.535-7.595 1.696.312-1.213 6.576-1.695-.312zm-7.356-1.864 1.659.472-1.474 5.178 2.912.829-.357 1.253-4.57-1.3z"/><use xlink:href="#a" transform="matrix(-1 0 0 1 158.96 0)" width="100%" height="100%"/><g id="a"><path style="display:inline;fill:#f3c242;fill-opacity:1;stroke:#956c29;stroke-width:.79375;stroke-linecap:butt;stroke-linejoin:miter;stroke-miterlimit:4;stroke-dasharray:none;stroke-opacity:1" d="m116.534.69-2.68 2.446-.071 5.205-19.36 17.505-5.226-.41-2.68 2.445-.042 5.194-34.137 30.919-1.153 1.744-7.82 8.044c-2.467 4.38-1.751 7.521-2.141 11.093-14.975 11.156-19.752 17.112-21.844 21.699-.826 3.549 12.675 13.15 16.867 12.258 3.414-7.116 10.938-17.7 19.269-25.522-.736-6.011-2.46-12.821.793-15.974l60.023-55.643 5.266.293 2.68-2.446.107-5.265 5.253.373 2.68-2.446-.453-4.829c.613-.598 1.029-1.775.171-2.453l-5.064-3.857h-5.184z"/><path style="fill:none;stroke:#956c29;stroke-width:.79375;stroke-linecap:butt;stroke-linejoin:miter;stroke-opacity:1;stroke-miterlimit:4;stroke-dasharray:none" d="m113.782 8.341 8.006-7.278M86.475 33.075l7.948-7.229m-38.114 51.49 3.73 4.423c1.896 2.09 6.767-2.377 5.177-3.96l-1.584-1.578c1.246-1.197 2.17-1.49 1.646-2.953l-2.183-2.207m2.183 2.207c2.183 1.286 5.296-1.71 4.07-3.62 1.857.77 5.122-.75 3.674-3.217-.897-1.528-1.467-3.233-.83-3.8m44.14-40.938 15.533-14.32M46.7 70.245l.452 6.304 4.47-4.262m1.557-4.063 46.374-42.046M48.463 68.39c2.562 3.228 5.39 5.921 8.351 8.35m-6.288-10.499c3.245 2.219 5.973 5.258 8.72 8.265m-2.212-2.592 45.982-42.256m2.753-2.531 24.907-22.89m-28.329 19.507 24.625-22.681M97.127 23.486c2.562 3.227 5.39 5.92 8.35 8.35M99.19 21.337c3.245 2.218 5.972 5.258 8.72 8.265M69.347 69.647l-2.182-2.207m-37.972 41.556c5.262-1.76 9.594-1.675 13.664-1.246m12.659-14.44c-11.247.965-22.305 2.821-31.672 12.624 4.1-3.984 18.7-5.244 24.205-4.944m-28.67 5.584c3.345-4.544 18.789 8.054 16.868 12.258"/></g></svg>